<svg xmlns="http://www.w3.org/2000/svg" viewBox="0 0 205.94 31.61">
		<path d="M20.7 5.3H5.8v.2c3 1.2 2.7 5.7 2.7 8.4v23c0 2.7.4 7.3-2.7 8.3v.2h12.1v-.2c-3.2-1.8-3.2-4.3-3.2-7.7V10c1.4-.2 2.8-.4 4.3-.4 4.9 0 8.7 2.1 8.7 7.5 0 5.9-5.7 9.1-10.9 9.4 1.4.7 2.9.9 4.4.9 6.9 0 13.4-4.5 13.4-11.5 0-6.8-6-10.6-13.9-10.6m51.9.2l-.1-.2H60.9v.2c3 1.2 2.7 5.6 2.7 8.3v18.4c0 2.2.1 3.7-1.3 5.6-2 2.9-5.5 4.3-8.9 4.3-6.3 0-9.7-3.8-9.7-11.9V13.8c0-2.7-.4-7.2 2.7-8.3v-.2H34.8v.2c3.1 1.2 2.7 5.6 2.7 8.3v16.3c0 4.4-.1 8.5 3.1 12 2.7 3 7 4.3 11 4.3 4.3 0 9.3-1.5 11.9-5v4h9v-.2c-3.1-1.2-2.7-5.6-2.7-8.3v-23c0-2.8-.3-7.3 2.8-8.4zm35.6 32c-3.8 2.2-8.4 3.8-13 3.8-9.4 0-15.5-8-15.5-16.9 0-8.8 5.9-15 14.3-15 4 0 7.9 1.3 11.3 3.5v-7c-3.6-.8-7.4-1.5-11.1-1.5-12.5 0-21.4 8.4-21.4 21 0 13 8.9 21.1 23.3 21.1 3.2 0 6.3-.5 9.2-1.8l3.1-7.1h-.2zm26.6-.6c2.6 3.2 6.4 6.3 9.9 8.5h-5.6c-3.2 0-5.2-.8-7.1-3l-7.4-9.2-5.6-8.6c4.9-.7 10.5-3 10.5-8.7 0-4.4-3.8-7-7.9-6.8-1.4.1-2.7.2-4.1.5v27.3c0 2.8-.4 7.3 2.7 8.3v.2h-11.6v-.2c3.1-1.1 2.7-5.6 2.7-8.3v-23c0-2.8.4-7.3-2.7-8.4v-.2h14.5c8.2 0 12.6 4.3 12.6 9.8 0 5.4-4.7 9.6-9.7 10.7l8.8 11.1m16.7-22.6c0-4.2 4.4-5.5 7.9-5.5 3.4 0 7.2 1.4 9.6 3.8V5.7c-2.9-.9-6-1.3-9.1-1.3-7.4 0-15.3 2.9-15.3 10.6 0 12.9 21 11.2 21 20.7 0 4.3-5.2 6.3-8.7 6.3-4.8 0-9.8-2-13.4-5.1l1.8 7.6c3.5 1.3 7.2 1.8 10.9 1.8 9.5 0 16.3-6.1 16.3-12.6 0-11.2-21-11.1-21-19.4zm259.2 14.5h8.5v2.6h-8.5v-2.6zm-117.2-3.5v-10c0-2.2-.8-3.4-3.2-3.4h-2.8v7.4c-.9-4.4-4.6-7.8-9.7-7.8s-9.2 3.4-10.1 7.8v-3.9c0-2.2-.8-3.4-3.3-3.4h-2.8v10.2c0 2.6-1.1 3.4-2.8 3.4-1.7 0-2.8-.8-2.8-3.4v-6.8c0-2.2-.8-3.4-3.3-3.4h-2.8v10.2c0 6.5 3.4 9.1 8.9 9.1 5.6 0 8.5-2.2 8.9-8.2.9 4.8 5 8.2 10.1 8.2 4.7 0 8.9-3.4 9.7-7.7v7.3h11.3c2.4 0 3.4-.7 3.4-3.2v-2.3h-8.7zm-15.9.3c-2.4 0-4.1-1.9-4.1-4.3s1.7-4.3 4.1-4.3c2.4 0 4.2 1.9 4.2 4.3s-1.8 4.3-4.2 4.3zm39.5-13.7c4.3 0 7.1.4 7.1 6.5 0 2.7-1.4 4.2-4.8 4.2h-7.8c0 4.3.8 5.4 3.5 5.4 3.2 0 6.1 0 8.7-.3v1.9c-2.8.8-5.8 1-8.7 1-4.7 0-6.1-2.3-6.1-9.5.1-8.1 2.4-9.2 8.1-9.2zm2.3 8.3c1.5 0 2.2-.6 2.2-1.7 0-3.6-.7-4-4.4-4-3.9 0-5.5 0-5.5 5.7h7.7zm13.6-8.4c1.6 0 4.6.5 6.8 1.4v-8h2.5v25.4h-1.8l-.7-2.1c-.9.7-4.4 2.3-6.8 2.3-5 0-6.1-5.1-6.1-9.3 0-4.9.8-9.7 6.1-9.7zm0 16.3c2.7 0 4.9-.8 6.8-1.6V15.3c-2.4-.6-4.1-.9-6.8-.9-2.2 0-3.5 1.4-3.5 7 0 4.5 1.2 6.7 3.5 6.7zm11.7-15.5l3.4-.6.6-5.1h1.9V12h5.4v2.6h-5.4v9.3c0 3 .8 3.7 2 4 0 0 2.8.7 3.1.7v1.8h-3.1c-2.7 0-4.6-1.7-4.6-6.6v-9.3h-3.4v-1.9zm21.8-.7c4.3 0 7.1.4 7.1 6.5 0 2.7-1.4 4.2-4.8 4.2H361c0 4.3.8 5.4 3.5 5.4 3.2 0 6.1 0 8.7-.3v1.9c-2.8.8-5.8 1-8.7 1-4.7 0-6.1-2.3-6.1-9.5.1-8.1 2.4-9.2 8.1-9.2zm2.3 8.3c1.5 0 2.2-.6 2.2-1.7 0-3.6-.7-4-4.4-4-3.9 0-5.5 0-5.5 5.7h7.7zm13.6-8.3c1.8 0 5.5.5 7.9.9v1.9s-4.8-.2-7.9-.2c-2.1 0-3.5.4-3.5 7 0 5.3 1 6.7 3.5 6.7 3.2 0 8.2-.4 8.2-.4v1.9c-2.8.8-5.3 1-8.2 1-3.4 0-6.1-1.3-6.1-9.4s2.5-9.4 6.1-9.4zm11.2-6.7h2.6v9c2.1-1.2 4-2.5 6.8-2.5 3.7 0 5.7 2.8 5.7 5.9v12.9h-2.6V17.7c0-2.3-1.3-3.3-3.1-3.3-2.8 0-4.1.7-6.8 2v14.2h-2.6V5.2zM249.8 39.1h3.9v.6H252v5.1h-.6v-5.1h-1.7v-.6zm6.9 1c0-.8.5-1 1-1l2.5.1v.5h-2.5c-.4 0-.4.2-.4.4v1.6l2.5.1v.5l-2.5.1V44c0 .4.3.4.5.4h2.4v.4l-2.4.1c-.5 0-1.1-.1-1.1-1v-3.8zm8.5-1.1c.4 0 1.4.1 1.9.2v.5s-1.2-.1-1.9-.1c-1 0-1.3.4-1.3 2.3 0 1.3.3 2.3 1.3 2.3.8 0 1.9-.1 1.9-.1v.5c-.5.1-1.5.2-1.9.2-1.4 0-1.9-1.2-1.9-2.9 0-1.8.3-2.9 1.9-2.9zm5.1.1h.6l3 4.6v-4.6h.6v5.7h-.6l-3-4.6v4.6h-.6v-5.7zm9.7 0c1.3 0 2.2.3 2.2 2.9 0 2.5-.8 2.8-2.2 2.8-1.4 0-2.2-.2-2.2-2.8 0-2.7.9-2.9 2.2-2.9zm0 5.1c1.2 0 1.6-.3 1.6-2.3 0-2.3-.6-2.3-1.6-2.3s-1.6 0-1.6 2.3c0 2.1.4 2.3 1.6 2.3zm5.5-5.1h.6v4.7c0 .4.3.4.5.4h2.4v.6h-2.4c-.5 0-1.1-.1-1.1-1v-4.7zm8.5 0c1.3 0 2.2.3 2.2 2.9 0 2.5-.8 2.8-2.2 2.8-1.4 0-2.2-.2-2.2-2.8 0-2.7.9-2.9 2.2-2.9zm0 5.1c1.2 0 1.6-.3 1.6-2.3 0-2.3-.6-2.3-1.6-2.3s-1.6 0-1.6 2.3c0 2.1.4 2.3 1.6 2.3zm6.9-5.2c.4 0 1.4.1 2 .2v.5s-1.2-.1-2-.1c-1 0-1.2.7-1.2 2.3 0 1.7.3 2.3 1.3 2.3.6 0 1.5-.4 1.5-.4v-1.6h-1.3V42c.3-.1.7-.2 1.4-.2h.5v3h-.4l-.1-.4c-.3.2-.8.4-1.5.4-1.6 0-1.8-1.3-1.8-2.9-.2-1.5.1-2.9 1.6-2.9zm5.5.1h.6v5.7h-.6v-5.7zm5.8 0h.6l2 5.7h-.7l-.5-1.6h-2.3l-.5 1.6h-.7l2.1-5.7zm1.2 3.5l-.9-2.6-.9 2.6h1.8zm8.6-3.5h2.3c.6 0 1.4.3 1.4 1.6 0 1.6-.8 1.7-1.4 1.7-.3 0-1.7-.1-1.8-.2v2.5h-.5v-5.6zm2.4 2.8c.4 0 .8-.1.8-1.1s-.5-1.1-.8-1.1h-1.8v2.2h1.8zm5.8-2.8h.6l2 5.7h-.8l-.5-1.6h-2.3l-.5 1.6h-.7l2.2-5.7zm1.2 3.5l-.9-2.6-.9 2.6h1.8zm4.3-3.5h2.4c.7 0 1.3.4 1.3 1.7 0 1.5-.8 1.6-1 1.6l1.2 2.3h-.6l-1.2-2.3-1.6-.1v2.4h-.6v-5.6zm2.4 2.7c.4 0 .7 0 .7-1s-.4-1.1-.7-1.1h-1.8v2.2h1.8zm6.5-2.7h.6l2 5.7h-.7l-.5-1.6h-2.3l-.5 1.6h-.7l2.1-5.7zm1.2 3.5l-.9-2.6-.9 2.6h1.8zm8.8-2.5c0-.8.5-1 1-1l2.5.1v.5h-2.5c-.4 0-.4.2-.4.4v1.6l2.5.1v.5l-2.5.1V44c0 .4.3.4.5.4h2.4v.4l-2.4.1c-.5 0-1.1-.1-1.1-1v-3.8zm6.7-1h2.1c1.7 0 2 1.7 2 2.9 0 1.3-.5 2.8-2 2.8h-2.1v-5.7zm2.1 5.1c1 0 1.4-1 1.4-2.2 0-1.7-.5-2.3-1.4-2.3h-1.5v4.5h1.5zm5.4-5.1h.6v3.2c0 2 .6 1.9 1.5 1.9.8 0 1.5 0 1.5-1.9v-3.2h.6v3.2c0 2.5-1.1 2.5-2.1 2.5-1.1 0-2.1.1-2.1-2.5v-3.2zm9.2-.1c.4 0 1.4.1 1.9.2v.5s-1.2-.1-1.9-.1c-1 0-1.3.4-1.3 2.3 0 1.3.3 2.3 1.3 2.3.8 0 1.9-.1 1.9-.1v.5c-.5.1-1.5.2-1.9.2-1.4 0-1.9-1.2-1.9-2.9.1-1.8.4-2.9 1.9-2.9zm7 .1h.6l2 5.7h-.7l-.5-1.6h-2.3l-.5 1.6h-.7l2.1-5.7zm1.2 3.5l-.9-2.6-.9 2.6h1.8zm5.9-3.6c.4 0 1.4.1 1.9.2v.5s-1.2-.1-1.9-.1c-1 0-1.3.4-1.3 2.3 0 1.3.3 2.3 1.3 2.3.8 0 1.9-.1 1.9-.1v.5c-.5.1-1.5.2-1.9.2-1.4 0-1.9-1.2-1.9-2.9 0-1.8.3-2.9 1.9-2.9zm-.2 6.7c.2-.1.2-.4.2-.7h.5c0 .8-.2 1.1-.8 1.1h-.4v-.3l.5-.1zm7.1-6.6h.6l2 5.7h-.7l-.5-1.6h-2.3l-.5 1.6h-.7l2.1-5.7zm-.1-1.3c.4 0 .6.3.8.3.2 0 .5-.1.7-.3l.2.3c-.3.2-.6.5-.9.5-.4 0-.6-.3-.8-.3-.3 0-.5.2-.7.3l-.2-.3c.3-.3.6-.5.9-.5zm1.3 4.8l-.9-2.6-.9 2.6h1.8zm6.3-3.5c1.3 0 2.2.3 2.2 2.9 0 2.5-.8 2.8-2.2 2.8-1.4 0-2.2-.2-2.2-2.8 0-2.7.9-2.9 2.2-2.9zm0 5.1c1.2 0 1.6-.3 1.6-2.3 0-2.3-.6-2.3-1.6-2.3s-1.6 0-1.6 2.3c0 2.1.4 2.3 1.6 2.3zM241.2 20.6c.1-.8.2-1.7.2-2.5-.2-5.1-4-10.2-8.5-12.4-1.8-.9-3.6-1.3-5.8-1.3-2 0-3.7.3-5.7 1-5.2 1.9-9 7.9-9 12.5 0 .7.1 1.4.2 2-.4 1.2-.7 2.5-.7 4 0 6.6 6.7 12.5 14.7 12.6 2.7 0 5.1-.8 7.1-2.3 2.7-.5 5-2.8 6.7-5.8 1.6-2.7 1.7-5.7.8-7.8m-14-15.7c5.4-.1 10 3.3 12.1 7.8.8 1.7 1.3 3.7 1.3 5.7v1.1c-.6-.8-1.5-1.4-2.5-1.7-.7-.2-1.4-.2-2.2-.1-2.6-3.3-6.9-5.4-11.4-5.4-4.8 0-8.9 2.2-11 5.7.1-7 5.7-13 13.7-13.1m5.7 29.2c-.5 0-.9 0-1.4-.2-1.3-.4-2.2-1.1-2.8-2.1 3-.4 5.8-1.6 8-3.5-.6 2.5-2 4.4-3.8 5.8m-5.2-2.7h-.6c-6.9 0-12.7-5.3-13.5-11.7 1.8-3.4 5.7-5.4 10.3-5.4 3.3 0 7 1.7 9.6 4.2-2.4 1.3-4.5 3.7-5.5 6.3-1.1 2.5-1.1 4.9-.3 6.6M229 26c1-2.6 3.4-4.9 5.9-5.8 1.3 1.7 2.1 3.6 2.1 5.7 0 .6 0 1.1-.1 1.6-2.2 2.2-5.1 3.6-8.3 3.9-.6-1.5-.4-3.4.4-5.4m8.2-6.2c.3 0 .7.1 1 .1.9.2 1.6.7 2.1 1.3-.4 1.6-1 3.1-1.9 4.4v-1c0-1.7-.4-3.3-1.2-4.8m-11.4 16.4c-7.3 0-13.3-6.1-13.3-11.9 0-1.1.1-2 .4-3 1.6 6 7.3 10.5 14 10.5h1.1c.6 1.1 1.7 1.9 3.1 2.2.5.1 1 .2 1.5.2-2 1.4-4.3 2-6.8 2m14.3-7.3c-1.5 2.5-3.7 4.5-6 5 2.1-1.7 3.7-4.2 4.2-7.1 1.2-1.4 2.1-3 2.6-4.7.9 1.8.6 4.4-.8 6.8"/>
</svg>
	
	


